Genre:Action | Crime | Drama
 Language:English
 
http://www.imdb.com/title/tt1596343/

 Source:German 720P TS/IMAGINE Thanks!
 
Format : MPEG-4
 Format profile : Base Media
 Codec ID : isom
 File size : 1.30 GiB
 Duration : 1h 56mn
 Overall bit rate : 1 600 Kbps
 
Video
 ID : 1
 Format : AVC
 Format/Info : Advanced Video Codec
 Format profile : High@L4.1
 Format settings, CABAC : Yes
 Format settings, ReFrames : 3 frames
 Codec ID : avc1
 Codec ID/Info : Advanced Video Coding
 Duration : 1h 56mn
 Bit rate mode : Variable
 Bit rate : 1 362 Kbps
 Maximum bit rate : 6 745 Kbps
 Width : 720 pixels
 Height : 304 pixels
 Display aspect ratio : 2.35:1
 Frame rate mode : Constant
 Frame rate : 25.000 fps
 Color space : YUV
 Chroma subsampling : 4:2:0
 Bit depth : 8 bits
 Scan type : Progressive
 Bits/(Pixel*Frame) : 0.249
 Stream size : 1.12 GiB (86%)
 Writing library : x264
 
Audio
 ID : 2
 Format : AAC
 Format/Info : Advanced Audio Codec
 Format version : Version 4
 Format profile : LC
 Format settings, SBR : No
 Codec ID : 40
 Duration : 1h 56mn
 Bit rate mode : Variable
 Bit rate : 224 Kbps
 Maximum bit rate : 293 Kbps
 Channel(s) : 2 channels
 Channel positions : Front: L R
 Sampling rate : 48.0 KHz
 Stream size : 187 MiB (14%)
 

Plot:
 Dominic and his crew find themselves on the wrong side of the law once again as they try to switch lanes between a ruthless drug lord and a relentless federal agent.
 
http://www.pix2links.com/images/21702749778584176155.png
 
http://www.pix2links.com/images/89246015672609903398.png
 
http://www.pix2links.com/images/14934704990678081679.png
 
http://www.pix2links.com/images/90169430472251975962.png
 
http://www.pix2links.com/images/96413924236135873172.png
 
http://www.pix2links.com/images/40331640548232961893.png
 
http://www.pix2links.com/images/40543587259613634338.png
 